<mxfile host="app.diagrams.net" modified="2024-02-04T19:57:26.609Z" agent="Mozilla/5.0 (Macintosh; Intel Mac OS X 10_15_7) AppleWebKit/605.1.15 (KHTML, like Gecko) Version/17.1.2 Safari/605.1.15" version="23.1.1" etag="anOZVUff6hP_Tm3oKUj3" type="github">
  <diagram name="Page-1" id="-eMqkjL-PFHLOfCSOXYW">
    <mxGraphModel>
      <root>
        <mxCell id="0" />
        <mxCell id="1" parent="0" />
      </root>
    </mxGraphModel>
  </diagram>
</mxfile>
